<svg width="39" height="38" viewBox="0 0 39 38" fill="none" xmlns="http://www.w3.org/2000/svg">
<path d="M38.5761 16.9719H7.57327L26.1294 0.747191C26.4261 0.485674 26.246 0 25.8539 0H21.1645C20.9578 0 20.7618 0.0747188 20.6081 0.208146L0.584254 17.7084C0.400859 17.8685 0.253776 18.0665 0.152973 18.2889C0.0521696 18.5113 0 18.7529 0 18.9973C0 19.2418 0.0521696 19.4834 0.152973 19.7058C0.253776 19.9282 0.400859 20.1261 0.584254 20.2862L20.7247 37.8933C20.8042 37.9626 20.8996 38 21.0002 38H25.8486C26.2407 38 26.4208 37.509 26.1241 37.2528L7.57327 21.0281H38.5761C38.8092 21.0281 39 20.836 39 20.6011V17.3989C39 17.164 38.8092 16.9719 38.5761 16.9719Z" fill="white"/>
</svg>

