<svg width="52" height="52" viewBox="0 0 52 52" fill="none" xmlns="http://www.w3.org/2000/svg">
<path d="M26.0025 52C22.4932 52 19.0855 51.3145 15.8808 49.9586C12.7829 48.6484 10.0049 46.7695 7.61793 44.3828C5.23098 41.9961 3.35189 39.2184 2.04161 36.1207C0.685614 32.9164 0 29.509 0 26C0 24.9895 0.817658 24.1719 1.8283 24.1719C2.83895 24.1719 3.65661 24.9895 3.65661 26C3.65661 29.0164 4.24573 31.9414 5.41381 34.6988C6.54126 37.3598 8.15119 39.7516 10.2029 41.8031C12.2547 43.8547 14.6467 45.4695 17.3079 46.5918C20.0606 47.7547 22.9858 48.3438 26.0025 48.3438C29.0192 48.3438 31.9445 47.7547 34.7022 46.5867C37.3634 45.4594 39.7554 43.8496 41.8072 41.798C43.859 39.7465 45.474 37.3547 46.5963 34.6938C47.7593 31.9414 48.3485 29.0164 48.3485 26C48.3485 22.9836 47.7593 20.0586 46.5913 17.3012C45.4676 14.6466 43.8414 12.2343 41.8021 10.1969C39.7668 8.15505 37.3536 6.52862 34.6971 5.4082C31.9445 4.24531 29.0192 3.65625 26.0025 3.65625C24.9919 3.65625 24.1742 2.83867 24.1742 1.82812C24.1742 0.817578 24.9919 0 26.0025 0C29.5119 0 32.9196 0.685547 36.1242 2.04141C39.2222 3.35156 42.0002 5.23047 44.3871 7.61719C46.7741 10.0039 48.6481 12.7867 49.9584 15.8793C51.3144 19.0836 52 22.491 52 26C52 29.509 51.3144 32.9164 49.9584 36.1207C48.6532 39.2184 46.7741 41.9961 44.3871 44.3828C42.0002 46.7695 39.2171 48.6434 36.1242 49.9535C32.9196 51.3145 29.5119 52 26.0025 52Z" fill="white"/>
</svg>
