<svg width="32" height="52" viewBox="0 0 32 52" fill="none" xmlns="http://www.w3.org/2000/svg">
<path d="M32 16.7998C32 12.5563 30.3143 8.48668 27.3137 5.4861C24.3131 2.48551 20.2435 0.799805 16 0.799805C11.7565 0.799805 7.68687 2.48551 4.68629 5.4861C1.68571 8.48668 0 12.5563 0 16.7998C0 17.6485 0.337143 18.4624 0.937259 19.0625C1.53738 19.6627 2.35131 19.9998 3.2 19.9998C4.04869 19.9998 4.86262 19.6627 5.46274 19.0625C6.06286 18.4624 6.4 17.6485 6.4 16.7998C6.4 14.9011 6.96303 13.045 8.01789 11.4663C9.07275 9.88762 10.5721 8.65716 12.3262 7.93056C14.0804 7.20396 16.0106 7.01385 17.8729 7.38427C19.7351 7.75468 21.4456 8.669 22.7882 10.0116C24.1308 11.3542 25.0451 13.0647 25.4155 14.9269C25.786 16.7892 25.5958 18.7194 24.8692 20.4736C24.1426 22.2277 22.9122 23.7271 21.3335 24.7819C19.7548 25.8368 17.8987 26.3998 16 26.3998C15.1513 26.3998 14.3374 26.7369 13.7373 27.3371C13.1371 27.9372 12.8 28.7511 12.8 29.5998V35.9998C12.8 36.8485 13.1371 37.6624 13.7373 38.2625C14.3374 38.8627 15.1513 39.1998 16 39.1998C16.8487 39.1998 17.6626 38.8627 18.2627 38.2625C18.8629 37.6624 19.2 36.8485 19.2 35.9998V32.4798C22.814 31.7421 26.0621 29.7784 28.3946 26.9211C30.7271 24.0638 32.0008 20.4883 32 16.7998Z" fill="white"/>
<path d="M16 51.9996C17.7674 51.9996 19.2 50.5669 19.2 48.7996C19.2 47.0323 17.7674 45.5996 16 45.5996C14.2327 45.5996 12.8 47.0323 12.8 48.7996C12.8 50.5669 14.2327 51.9996 16 51.9996Z" fill="white"/>
</svg>
